<?xml version="1.0" encoding="utf-8"?>
<svg viewBox="0 0 822.887 512" xmlns="http://www.w3.org/2000/svg">
  <path d="M 512 240 C 512 264.886 506.624 288.749 496.764 310.865 L 446.456 310.865 L 446.456 241.835 C 446.456 224.161 432.129 209.835 414.456 209.835 L 401.569 209.835 C 383.896 209.835 369.569 224.161 369.569 241.835 L 369.569 310.865 L 305.744 310.865 C 288.071 310.865 273.744 325.192 273.744 342.865 L 273.744 361.022 C 273.744 378.695 288.071 393.022 305.744 393.022 L 369.569 393.022 L 369.569 426.47 C 335.348 440.253 296.789 448 256 448 C 218.9 448 183.7 441.6 151.9 430.1 C 140 438.8 120.6 450.7 97.6 460.7 C 73.6 471.1 44.7 480 16 480 C 9.5 480 3.7 476.1 1.2 470.1 C -1.3 464.1 0.1 457.3 4.6 452.7 L 4.9 452.4 C 5.2 452.1 5.6 451.7 6.2 451 C 7.3 449.8 9 447.9 11.1 445.3 C 15.2 440.3 20.7 432.9 26.3 423.7 C 36.3 407.1 45.8 385.3 47.7 360.8 C 17.7 326.8 0 285.1 0 240 C 0 125.1 114.6 32 256 32 C 397.4 32 512 125.1 512 240 Z"/>
  <rect style="stroke: rgb(0, 0, 0);" x="319.816" y="332.157" width="176" height="45.03" rx="26.4" ry="26.4"/>
  <rect style="stroke: rgb(0, 0, 0); stroke-miterlimit: 1;" transform="matrix(0, 1, -1, 0, 663.373108, -198.133636)" x="465.207" y="233.427" width="176" height="42.671" rx="25.1" ry="25.1"/>
</svg>