<?xml version="1.0" encoding="utf-8"?>
<svg viewBox="0 0 448 512" xmlns="http://www.w3.org/2000/svg">
  <path d="M 0 96 C 0 60.7 28.7 32 64 32 L 384 32 C 419.3 32 448 60.7 448 96 L 448 416 C 448 451.3 419.3 480 384 480 L 64 480 C 28.7 480 0 451.3 0 416 Z M 224.009 113.5 C 134.056 113.5 61.152 172.727 61.152 245.822 C 61.152 274.513 72.412 301.04 91.497 322.67 C 90.288 338.256 84.245 352.124 77.883 362.684 C 74.32 368.537 70.822 373.245 68.213 376.425 C 66.877 378.08 65.796 379.288 65.096 380.052 C 64.714 380.497 64.46 380.751 64.269 380.942 L 64.078 381.133 C 61.216 384.059 60.325 388.385 61.915 392.202 C 63.506 396.019 67.195 398.5 71.33 398.5 C 89.588 398.5 107.973 392.838 123.241 386.222 C 137.873 379.861 150.214 372.29 157.785 366.756 C 178.015 374.072 200.407 378.143 224.009 378.143 C 313.962 378.143 386.866 318.917 386.866 245.822 C 386.866 172.727 313.962 113.5 224.009 113.5 Z M 255.068 177.952 C 262.028 170.993 273.301 170.993 280.26 177.952 L 291.228 188.947 C 298.187 195.906 298.187 207.179 291.228 214.14 L 277.755 227.612 L 241.568 191.424 L 255.04 177.952 Z M 271.464 233.903 L 206.521 298.818 C 203.626 301.713 200.035 303.829 196.111 304.998 L 162.623 314.852 C 160.284 315.521 157.751 314.88 156.025 313.154 C 154.299 311.428 153.659 308.895 154.355 306.529 L 164.209 273.042 C 165.379 269.117 167.494 265.525 170.389 262.63 L 235.276 197.715 Z"/>
</svg>