<?xml version="1.0" encoding="utf-8"?>
<svg viewBox="0 0 574.31 487.818" xmlns="http://www.w3.org/2000/svg">
  <path d="M 256 448 C 218.9 448 183.7 441.6 151.9 430.1 C 140 438.8 120.6 450.7 97.6 460.7 C 73.6 471.1 44.7 480 16 480 C 9.5 480 3.7 476.1 1.2 470.1 C -1.3 464.1 0.1 457.3 4.6 452.7 L 4.9 452.4 C 5.2 452.1 5.6 451.7 6.2 451 C 7.3 449.8 9 447.9 11.1 445.3 C 15.2 440.3 20.7 432.9 26.3 423.7 C 36.3 407.1 45.8 385.3 47.7 360.8 C 17.7 326.8 0 285.1 0 240 C 0 125.1 114.6 32 256 32 C 312.799 32 365.274 47.022 407.734 72.445 C 407.581 72.445 407.428 72.445 407.275 72.445 C 395.047 72.445 383.071 73.456 371.433 75.484 C 363.672 76.748 357.77 82.818 356.083 90.494 L 345.541 138.648 C 332.218 144.13 319.734 151.383 308.433 160.071 L 261.458 145.144 C 254.039 142.78 245.774 144.804 240.797 150.877 C 233.966 159.142 227.729 167.913 222.16 177.19 L 218.195 184.021 C 213.052 193.298 208.581 202.91 204.87 212.949 C 202.171 220.284 204.451 228.464 210.269 233.693 L 246.786 266.92 C 245.858 273.922 245.35 281.088 245.35 288.342 C 245.35 295.596 245.858 302.764 246.786 309.848 L 210.269 343.075 C 204.451 348.304 202.171 356.485 204.87 363.822 C 208.581 373.857 213.052 383.473 218.195 392.748 L 222.16 399.58 C 227.729 408.856 233.966 417.627 240.797 425.892 C 245.774 431.878 254.039 433.987 261.458 431.628 L 308.349 416.616 C 318.436 424.367 329.465 430.979 341.194 436.209 C 314.544 443.846 285.87 448 256 448 Z M 469.005 138.565 L 464.876 119.697 C 472.118 127.985 478.632 136.722 484.342 145.847 C 479.375 143.159 474.256 140.724 469.005 138.565 Z"/>
  <path d="M 554.255 233.554 C 556.215 238.884 554.561 244.827 550.332 248.626 L 523.801 272.767 C 524.475 277.854 524.844 283.061 524.844 288.331 C 524.844 293.601 524.475 298.809 523.801 303.894 L 550.332 328.035 C 554.561 331.834 556.215 337.778 554.255 343.108 C 551.559 350.4 548.311 357.384 544.574 364.125 L 541.694 369.09 C 537.65 375.827 533.115 382.201 528.153 388.206 C 524.538 392.616 518.533 394.087 513.141 392.373 L 479.013 381.527 C 470.802 387.837 461.733 393.107 452.052 397.09 L 444.393 432.076 C 443.167 437.653 438.879 442.065 433.242 442.983 C 424.785 444.392 416.085 445.128 407.2 445.128 C 398.316 445.128 389.615 444.392 381.158 442.983 C 375.522 442.065 371.234 437.653 370.007 432.076 L 362.35 397.09 C 352.668 393.107 343.599 387.837 335.388 381.527 L 301.32 392.434 C 295.93 394.148 289.925 392.616 286.309 388.267 C 281.346 382.262 276.814 375.89 272.769 369.15 L 269.887 364.187 C 266.151 357.448 262.903 350.461 260.207 343.17 C 258.246 337.84 259.902 331.896 264.129 328.097 L 290.66 303.956 C 289.986 298.809 289.617 293.601 289.617 288.331 C 289.617 283.061 289.986 277.854 290.66 272.767 L 264.129 248.626 C 259.902 244.827 258.246 238.884 260.207 233.554 C 262.903 226.261 266.151 219.277 269.887 212.537 L 272.769 207.574 C 276.814 200.834 281.346 194.462 286.309 188.457 C 289.925 184.045 295.93 182.574 301.32 184.291 L 335.449 195.136 C 343.66 188.824 352.73 183.555 362.41 179.572 L 370.069 144.586 C 371.295 139.009 375.583 134.599 381.221 133.68 C 389.677 132.207 398.378 131.473 407.262 131.473 C 416.147 131.473 424.846 132.207 433.302 133.617 C 438.939 134.537 443.228 138.948 444.454 144.523 L 452.112 179.512 C 461.796 183.494 470.863 188.763 479.073 195.075 L 513.202 184.229 C 518.594 182.513 524.599 184.045 528.213 188.396 C 533.177 194.401 537.711 200.772 541.755 207.512 L 544.634 212.476 C 548.374 219.216 551.62 226.2 554.315 233.493 L 554.255 233.554 Z M 407.262 337.35 C 434.343 337.35 456.281 315.414 456.281 288.331 C 456.281 261.249 434.343 239.312 407.262 239.312 C 380.179 239.312 358.245 261.249 358.245 288.331 C 358.245 315.414 380.179 337.35 407.262 337.35 Z" style=""/>
</svg>