<?xml version="1.0" encoding="utf-8"?>
<svg viewBox="0 0 512 512" xmlns="http://www.w3.org/2000/svg">
  <path d="M 512 240 C 512 354.9 397.4 448 256 448 C 218.9 448 183.7 441.6 151.9 430.1 C 140 438.8 120.6 450.7 97.6 460.7 C 73.6 471.1 44.7 480 16 480 C 9.5 480 3.7 476.1 1.2 470.1 C -1.3 464.1 0.1 457.3 4.6 452.7 L 4.9 452.4 C 5.2 452.1 5.6 451.7 6.2 451 C 7.3 449.8 9 447.9 11.1 445.3 C 15.2 440.3 20.7 432.9 26.3 423.7 C 36.3 407.1 45.8 385.3 47.7 360.8 C 17.7 326.8 0 285.1 0 240 C 0 125.1 114.6 32 256 32 C 397.4 32 512 125.1 512 240 Z M 304.779 133.313 L 283.601 154.491 L 340.485 211.376 L 361.664 190.198 C 372.603 179.257 372.603 161.536 361.664 150.597 L 344.423 133.313 C 333.484 122.374 315.763 122.374 304.823 133.313 Z M 273.711 164.38 L 171.713 266.422 C 167.163 270.973 163.837 276.618 161.999 282.788 L 146.509 335.428 C 145.415 339.147 146.421 343.129 149.134 345.842 C 151.847 348.555 155.829 349.562 159.505 348.511 L 212.146 333.021 C 218.315 331.184 223.959 327.858 228.51 323.307 L 330.596 221.265 Z"/>
</svg>