<?xml version="1.0" encoding="utf-8"?>
<svg viewBox="0 0 839.093 512" xmlns="http://www.w3.org/2000/svg">
  <path d="M 512 240 C 512 248.071 511.435 256.035 510.334 263.866 L 457.073 263.866 L 457.073 162.428 C 457.073 144.755 442.746 130.428 425.073 130.428 L 380.563 130.428 C 362.89 130.428 348.563 144.755 348.563 162.428 L 348.563 263.866 L 245.328 263.866 C 227.655 263.866 213.328 278.193 213.328 295.866 L 213.328 340.376 C 213.328 358.049 227.655 372.376 245.328 372.376 L 348.563 372.376 L 348.563 433.992 C 319.857 443.038 288.643 448 256 448 C 218.9 448 183.7 441.6 151.9 430.1 C 140 438.8 120.6 450.7 97.6 460.7 C 73.6 471.1 44.7 480 16 480 C 9.5 480 3.7 476.1 1.2 470.1 C -1.3 464.1 0.1 457.3 4.6 452.7 L 4.9 452.4 C 5.2 452.1 5.6 451.7 6.2 451 C 7.3 449.8 9 447.9 11.1 445.3 C 15.2 440.3 20.7 432.9 26.3 423.7 C 36.3 407.1 45.8 385.3 47.7 360.8 C 17.7 326.8 0 285.1 0 240 C 0 125.1 114.6 32 256 32 C 397.4 32 512 125.1 512 240 Z"/>
  <rect style="stroke: rgb(0, 0, 0);" x="279.232" y="289.215" width="250" height="53.936" rx="26.4" ry="26.4"/>
  <rect style="stroke: rgb(0, 0, 0); stroke-miterlimit: 1;" transform="matrix(0, 1, -1, 0, 709.945007, -471.152588)" x="660.803" y="279.595" width="250" height="51.111" rx="25.1" ry="25.1"/>
</svg>