<?xml version="1.0" encoding="utf-8"?>
<svg viewBox="0 0 712.237 512" xmlns="http://www.w3.org/2000/svg">
  <path d="M 256 448 C 218.9 448 183.7 441.6 151.9 430.1 C 140 438.8 120.6 450.7 97.6 460.7 C 73.6 471.1 44.7 480 16 480 C 9.5 480 3.7 476.1 1.2 470.1 C -1.3 464.1 0.1 457.3 4.6 452.7 L 4.9 452.4 C 5.2 452.1 5.6 451.7 6.2 451 C 7.3 449.8 9 447.9 11.1 445.3 C 15.2 440.3 20.7 432.9 26.3 423.7 C 36.3 407.1 45.8 385.3 47.7 360.8 C 17.7 326.8 0 285.1 0 240 C 0 125.1 114.6 32 256 32 C 368.469 32 463.984 90.901 498.36 172.823 L 320.566 350.693 C 312.463 358.796 306.541 368.846 303.269 379.832 L 283.56 446.809 C 274.506 447.596 265.311 448 256 448 Z"/>
  <path d="M 577.149 157.223 L 544.607 189.764 L 632.012 277.17 L 664.554 244.628 C 681.363 227.819 681.363 200.589 664.554 183.78 L 638.063 157.223 C 621.254 140.414 594.025 140.414 577.216 157.223 L 577.149 157.223 Z M 529.412 204.96 L 372.688 361.752 C 365.695 368.744 360.585 377.417 357.761 386.897 L 333.96 467.781 C 332.279 473.495 333.825 479.614 337.994 483.783 C 342.162 487.951 348.281 489.497 353.929 487.884 L 434.812 464.083 C 444.292 461.259 452.966 456.149 459.958 449.157 L 616.817 292.365 L 529.412 204.96 Z" style=""/>
</svg>