<?xml version="1.0" encoding="utf-8"?>
<svg viewBox="0 0 448 512" xmlns="http://www.w3.org/2000/svg">
  <path d="M 0 96 C 0 60.7 28.7 32 64 32 L 384 32 C 419.3 32 448 60.7 448 96 L 448 416 C 448 451.3 419.3 480 384 480 L 64 480 C 28.7 480 0 451.3 0 416 Z M 67.476 116.342 C 61.688 111.777 53.282 112.835 48.718 118.624 C 44.154 124.413 45.211 132.818 51 137.382 L 380.524 395.658 C 386.313 400.222 394.718 399.165 399.283 393.376 C 403.847 387.587 402.789 379.182 397 374.617 L 331.374 323.185 C 353.249 302.868 366.497 276.205 366.497 247.094 C 366.497 183.137 302.708 131.315 224 131.315 C 186.317 131.315 152.028 143.227 126.535 162.653 Z M 81.504 247.094 C 81.504 272.198 91.356 295.409 108.055 314.39 C 106.997 328.028 101.709 340.162 96.143 349.402 C 93.081 354.523 89.964 358.642 87.682 361.425 C 86.513 362.817 85.623 363.874 84.955 364.598 C 84.621 364.932 84.398 365.21 84.231 365.377 L 84.064 365.544 C 81.504 368.105 80.78 371.89 82.171 375.23 C 83.563 378.569 86.791 380.74 90.41 380.74 C 106.385 380.74 122.471 375.786 135.83 369.997 C 148.577 364.431 159.431 357.807 166.055 352.965 C 183.756 359.366 203.349 362.928 224 362.928 C 244.596 362.928 264.245 359.366 281.89 352.965 L 92.024 203.287 C 85.233 216.813 81.504 231.62 81.504 247.094 Z"/>
</svg>