<?xml version="1.0" encoding="utf-8"?>
<svg viewBox="0 0 448 512" xmlns="http://www.w3.org/2000/svg">
  <path d="M 0 96 C 0 60.7 28.7 32 64 32 L 384 32 C 419.3 32 448 60.7 448 96 L 448 416 C 448 451.3 419.3 480 384 480 L 64 480 C 28.7 480 0 451.3 0 416 Z M 224.017 378.092 C 313.956 378.092 386.848 318.875 386.848 245.792 C 386.848 172.708 313.956 113.491 224.017 113.491 C 134.078 113.491 61.186 172.708 61.186 245.792 C 61.186 274.478 72.444 301.002 91.526 322.691 C 90.317 338.275 84.275 352.141 77.914 362.699 C 74.416 368.551 70.854 373.258 68.246 376.438 C 66.911 378.028 65.893 379.237 65.13 380.064 C 64.748 380.445 64.494 380.763 64.303 380.954 L 64.112 381.145 C 61.186 384.071 60.359 388.396 61.949 392.212 C 63.539 396.029 67.229 398.509 71.363 398.509 C 89.618 398.509 108 392.848 123.265 386.233 C 137.831 379.873 150.234 372.304 157.803 366.77 C 178.03 374.085 200.419 378.155 224.017 378.155 Z M 203.663 194.907 C 203.663 189.31 208.243 184.73 213.84 184.73 L 234.194 184.73 C 239.791 184.73 244.371 189.31 244.371 194.907 L 244.371 225.438 L 274.902 225.438 C 280.499 225.438 285.079 230.017 285.079 235.615 L 285.079 255.969 C 285.079 261.566 280.499 266.145 274.902 266.145 L 244.371 266.145 L 244.371 296.676 C 244.371 302.274 239.791 306.853 234.194 306.853 L 213.84 306.853 C 208.243 306.853 203.663 302.274 203.663 296.676 L 203.663 266.145 L 173.132 266.145 C 167.535 266.145 162.955 261.566 162.955 255.969 L 162.955 235.615 C 162.955 230.017 167.535 225.438 173.132 225.438 L 203.663 225.438 Z"/>
</svg>