<?xml version="1.0" encoding="utf-8"?>
<svg viewBox="0 0 448 512" xmlns="http://www.w3.org/2000/svg">
  <path d="M 0 96 C 0 60.7 28.7 32 64 32 L 384 32 C 419.3 32 448 60.7 448 96 L 448 416 C 448 451.3 419.3 480 384 480 L 64 480 C 28.7 480 0 451.3 0 416 Z M 170.563 158.032 C 170.563 133.428 150.635 113.5 126.032 113.5 C 101.428 113.5 81.5 133.428 81.5 158.032 C 81.5 182.635 101.428 202.563 126.032 202.563 C 150.635 202.563 170.563 182.635 170.563 158.032 Z M 375.407 158.032 C 375.407 133.428 355.479 113.5 330.875 113.5 C 306.272 113.5 286.344 133.428 286.344 158.032 C 286.344 182.635 306.272 202.563 330.875 202.563 C 355.479 202.563 375.407 182.635 375.407 158.032 Z M 57.732 291.625 C 57.899 291.625 176.797 291.625 176.909 291.625 C 162.158 278.544 152.806 259.452 152.806 238.188 C 152.806 233.957 153.14 229.783 153.864 225.775 C 146.293 222.324 137.888 220.375 129.038 220.375 L 105.269 220.375 C 72.483 220.375 45.875 246.983 45.875 279.769 C 45.875 286.282 51.219 291.625 57.732 291.625 Z M 315.241 291.625 L 315.241 267.287 C 315.241 254.99 324.673 245.021 336.309 245.021 C 347.944 245.021 357.377 254.989 357.377 267.287 L 357.377 291.625 C 375.996 291.625 390.231 291.625 390.269 291.625 C 396.782 291.625 402.125 286.337 402.125 279.769 C 402.125 246.983 375.518 220.375 342.732 220.375 L 318.963 220.375 C 310.113 220.375 301.707 222.268 294.137 225.775 C 294.805 229.838 295.195 233.957 295.195 238.188 C 295.195 259.452 285.899 278.544 271.092 291.625 C 271.161 291.625 291.436 291.625 315.241 291.625 Z M 224 184.75 C 194.498 184.75 170.563 208.686 170.563 238.188 C 170.563 267.69 194.498 291.625 224 291.625 C 253.502 291.625 277.438 267.69 277.438 238.188 C 277.438 208.686 253.502 184.75 224 184.75 Z M 131.988 398.5 L 316.013 398.5 C 318.185 398.5 320.245 398.036 322.101 397.202 C 317.885 393.131 315.241 387.273 315.241 380.762 L 315.241 346.258 L 283.707 346.258 C 271.411 346.258 261.442 336.304 261.442 324.026 C 261.442 318.739 263.29 313.883 266.377 310.067 C 263.201 309.652 259.963 309.438 256.675 309.438 L 191.326 309.438 C 150.357 309.438 117.125 342.669 117.125 383.638 C 117.125 391.876 123.805 398.5 131.988 398.5 Z M 336.328 272.699 C 329.769 272.699 324.452 283.937 324.452 297.799 L 324.452 308.928 L 313.301 308.928 C 298.721 308.928 286.901 314.539 286.901 321.461 C 286.901 328.383 298.721 333.994 313.301 333.994 L 324.452 333.994 L 324.452 345.568 C 324.452 359.431 329.769 370.668 336.328 370.668 C 342.886 370.668 348.204 359.431 348.204 345.568 L 348.204 333.994 L 358.47 333.994 C 373.05 333.994 384.87 328.383 384.87 321.461 C 384.87 314.539 373.05 308.928 358.47 308.928 L 348.204 308.928 L 348.204 297.799 C 348.204 283.937 342.886 272.699 336.328 272.699 Z"/>
</svg>