<?xml version="1.0" encoding="utf-8"?>
<svg viewBox="0 0 642.09 513.991" xmlns="http://www.w3.org/2000/svg">
  <path d="M 144 160 C 99.8 160 64 124.2 64 80 C 64 35.8 99.8 0 144 0 C 188.2 0 224 35.8 224 80 C 224 124.2 188.2 160 144 160 Z M 512 160 C 467.8 160 432 124.2 432 80 C 432 35.8 467.8 0 512 0 C 556.2 0 592 35.8 592 80 C 592 124.2 556.2 160 512 160 Z M 0 298.7 C 0 239.8 47.8 192 106.7 192 L 149.4 192 C 165.3 192 180.4 195.5 194 201.7 C 192.7 208.9 192.1 216.4 192.1 224 C 192.1 262.2 208.9 296.5 235.4 320 C 235.2 320 235 320 234.7 320 L 21.3 320 C 9.6 320 0 310.4 0 298.7 Z M 404.6 320 C 431.2 296.5 447.9 262.2 447.9 224 C 447.9 216.4 447.2 209 446 201.7 C 459.6 195.4 474.7 192 490.6 192 L 533.3 192 C 592.2 192 640 239.8 640 298.7 C 640 310.5 630.4 320 618.7 320 C 618.631 320 593.058 320 559.61 320 L 559.61 276.276 C 559.61 254.184 542.664 236.275 521.761 236.276 C 500.858 236.276 483.913 254.185 483.913 276.276 L 483.913 320 C 441.147 320 404.724 320 404.6 320 Z M 416 224 C 416 277 373 320 320 320 C 267 320 224 277 224 224 C 224 171 267 128 320 128 C 373 128 416 171 416 224 Z M 128 485.3 C 128 411.7 187.7 352 261.3 352 L 378.7 352 C 384.607 352 390.424 352.385 396.129 353.13 C 390.584 359.985 387.263 368.709 387.263 378.207 C 387.263 400.265 405.172 418.147 427.263 418.147 L 483.913 418.147 L 483.913 480.133 C 483.913 491.83 488.663 502.354 496.236 509.668 C 492.902 511.166 489.202 512 485.3 512 L 154.7 512 C 140 512 128 500.1 128 485.3 Z" style="stroke-width: 12px; stroke-linecap: round; stroke-linejoin: round;"/>
  <rect style="stroke: rgb(0, 0, 0);" x="433" y="351.084" width="176" height="45.03" rx="26.4" ry="26.4"/>
  <rect style="stroke: rgb(0, 0, 0); stroke-miterlimit: 1;" transform="matrix(0, 1, -1, 0, 776.556885, -179.207001)" x="465.207" y="233.427" width="176" height="42.671" rx="25.1" ry="25.1"/>
</svg>