<?xml version="1.0" encoding="utf-8"?>
<svg viewBox="0 0 448 512" xmlns="http://www.w3.org/2000/svg">
  <path d="M 0 96 C 0 60.7 28.7 32 64 32 L 384 32 C 419.3 32 448 60.7 448 96 L 448 416 C 448 451.3 419.3 480 384 480 L 64 480 C 28.7 480 0 451.3 0 416 Z M 163.626 158.031 C 163.626 133.427 143.698 113.5 119.095 113.5 C 94.491 113.5 74.563 133.427 74.563 158.031 C 74.563 182.634 94.491 202.562 119.095 202.562 C 143.698 202.562 163.626 182.634 163.626 158.031 Z M 368.47 158.031 C 368.47 133.427 348.542 113.5 323.938 113.5 C 299.335 113.5 279.407 133.427 279.407 158.031 C 279.407 182.634 299.335 202.562 323.938 202.562 C 348.542 202.562 368.47 182.634 368.47 158.031 Z M 50.795 291.625 C 50.962 291.625 169.86 291.625 169.971 291.625 C 155.221 278.544 145.869 259.451 145.869 238.187 C 145.869 233.957 146.203 229.782 146.927 225.774 C 139.356 222.323 130.951 220.375 122.1 220.375 L 98.332 220.375 C 65.546 220.375 38.938 246.982 38.938 279.768 C 38.938 286.281 44.282 291.625 50.795 291.625 Z M 282.275 291.625 L 351.417 222.453 C 346.439 221.098 341.201 220.375 335.795 220.375 L 312.026 220.375 C 303.176 220.375 294.77 222.267 287.2 225.774 C 287.868 229.838 288.258 233.957 288.258 238.187 C 288.258 259.451 278.962 278.544 264.155 291.625 C 264.196 291.625 271.413 291.625 282.275 291.625 Z M 217.063 184.75 C 187.561 184.75 163.626 208.685 163.626 238.187 C 163.626 267.689 187.561 291.625 217.063 291.625 C 246.565 291.625 270.501 267.689 270.501 238.187 C 270.501 208.685 246.565 184.75 217.063 184.75 Z M 125.051 398.5 L 309.076 398.5 C 317.314 398.5 323.938 391.82 323.938 383.637 C 323.938 376.099 322.813 368.823 320.722 361.967 C 316.78 365.324 312.156 367.82 307.174 369.303 L 256.727 384.15 C 253.203 385.156 249.386 384.191 246.787 381.592 C 244.187 378.992 243.223 375.176 244.27 371.611 L 259.116 321.163 C 260.215 317.472 261.87 313.978 264.02 310.812 C 259.398 309.91 254.623 309.437 249.738 309.437 L 184.388 309.437 C 143.42 309.437 110.188 342.669 110.188 383.637 C 110.188 391.876 116.868 398.5 125.051 398.5 Z M 366.398 224.989 L 352.516 238.871 L 389.802 276.157 L 403.685 262.276 C 410.854 255.105 410.854 243.49 403.685 236.32 L 392.384 224.989 C 385.213 217.818 373.597 217.818 366.427 224.989 Z M 346.034 245.354 L 279.178 312.24 C 276.194 315.223 274.013 318.923 272.81 322.967 L 262.655 357.471 C 261.939 359.909 262.599 362.519 264.377 364.297 C 266.155 366.075 268.765 366.735 271.175 366.047 L 305.679 355.893 C 309.723 354.689 313.423 352.508 316.406 349.526 L 383.321 282.641 Z"/>
</svg>