<?xml version="1.0" encoding="utf-8"?>
<svg viewBox="0 0 448 512" xmlns="http://www.w3.org/2000/svg">
  <path d="M 0 96 C 0 60.7 28.7 32 64 32 L 384 32 C 419.3 32 448 60.7 448 96 L 448 416 C 448 451.3 419.3 480 384 480 L 64 480 C 28.7 480 0 451.3 0 416 Z M 67.476 116.342 C 61.687 111.778 53.282 112.835 48.717 118.624 C 44.153 124.413 45.211 132.818 51 137.383 L 380.524 395.658 C 386.312 400.223 394.718 399.165 399.282 393.376 C 403.846 387.587 402.789 379.182 397 374.618 L 291.129 291.624 L 390.265 291.624 C 396.833 291.624 402.121 286.281 402.121 279.768 C 402.121 246.983 375.514 220.376 342.728 220.376 L 319.016 220.376 C 310.166 220.376 301.761 222.324 294.19 225.775 C 294.914 229.783 295.248 233.958 295.248 238.188 C 295.248 254.998 289.403 270.473 279.662 282.663 L 265.635 271.697 C 273.039 262.513 277.436 250.879 277.436 238.188 C 277.436 208.687 253.501 184.752 224 184.752 C 206.689 184.752 191.326 192.99 181.529 205.737 L 158.93 188.036 C 166.166 180.132 170.563 169.611 170.563 158.034 C 170.563 133.431 150.636 113.503 126.033 113.503 C 110.614 113.503 97.033 121.352 89.017 133.264 Z M 105.271 220.376 C 72.485 220.376 45.879 246.983 45.879 279.768 C 45.879 286.281 51.222 291.624 57.735 291.624 C 57.847 291.624 176.742 291.624 176.909 291.624 C 165.442 281.494 157.316 267.801 154.198 252.215 L 113.676 220.376 Z M 191.326 309.437 C 150.358 309.437 117.127 342.667 117.127 383.635 C 117.127 391.818 123.751 398.497 131.989 398.497 L 316.01 398.497 C 321.855 398.497 326.865 395.157 329.314 390.259 L 226.727 309.437 Z M 330.872 202.564 C 355.475 202.564 375.403 182.637 375.403 158.034 C 375.403 133.431 355.475 113.503 330.872 113.503 C 306.269 113.503 286.342 133.431 286.342 158.034 C 286.342 182.637 306.269 202.564 330.872 202.564 Z"/>
</svg>