<?xml version="1.0" encoding="utf-8"?>
<svg viewBox="0 0 448 512" xmlns="http://www.w3.org/2000/svg">
  <path d="M 0 96 C 0 60.7 28.7 32 64 32 L 384 32 C 419.3 32 448 60.7 448 96 L 448 416 C 448 451.3 419.3 480 384 480 L 64 480 C 28.7 480 0 451.3 0 416 Z M 67.477 116.342 C 61.688 111.778 53.283 112.835 48.718 118.624 C 44.154 124.413 45.211 132.818 51 137.382 L 380.524 395.658 C 386.313 400.222 394.718 399.165 399.283 393.376 C 403.847 387.587 402.79 379.182 397.001 374.617 L 258.456 266.019 C 285.452 253.105 304.155 225.552 304.155 193.658 C 304.155 149.406 268.252 113.503 224 113.503 C 185.259 113.503 152.975 140.945 145.46 177.46 Z M 204.129 291.624 L 171.288 291.624 C 121.692 291.624 81.504 331.813 81.504 381.408 C 81.504 390.871 89.185 398.497 98.592 398.497 L 339.779 398.497 Z"/>
</svg>