<?xml version="1.0" encoding="utf-8"?>
<svg viewBox="0 0 448 512" xmlns="http://www.w3.org/2000/svg">
  <path d="M 0 96 C 0 60.7 28.7 32 64 32 L 384 32 C 419.3 32 448 60.7 448 96 L 448 416 C 448 451.3 419.3 480 384 480 L 64 480 C 28.7 480 0 451.3 0 416 Z M 170.59 256 C 209.945 256 241.84 224.104 241.84 184.75 C 241.84 145.395 209.945 113.5 170.59 113.5 C 131.236 113.5 99.34 145.395 99.34 184.75 C 99.34 224.104 131.236 256 170.59 256 Z M 145.152 282.719 C 90.323 282.719 45.903 327.139 45.903 381.968 C 45.903 391.097 53.306 398.5 62.435 398.5 L 225.586 398.5 C 223.861 393.601 223.527 388.258 224.807 383.025 L 233.157 349.571 C 234.715 343.281 237.944 337.603 242.508 333.039 L 264.941 310.606 C 247.073 293.35 222.803 282.719 195.973 282.719 Z M 387.569 244.7 C 378.885 236.017 364.802 236.017 356.063 244.7 L 339.698 261.065 L 379.219 300.587 L 395.584 284.222 C 404.268 275.538 404.268 261.455 395.584 252.716 Z M 255.144 345.619 C 252.862 347.901 251.247 350.74 250.468 353.913 L 242.118 387.367 C 241.339 390.429 242.23 393.601 244.456 395.828 C 246.683 398.055 249.856 398.945 252.917 398.166 L 286.371 389.816 C 289.489 389.037 292.383 387.423 294.665 385.14 L 366.583 313.167 L 327.062 273.645 Z"/>
</svg>