<?xml version="1.0" encoding="utf-8"?>
<svg viewBox="0 0 448 512" xmlns="http://www.w3.org/2000/svg">
  <path d="M 0 96 C 0 60.7 28.7 32 64 32 L 384 32 C 419.3 32 448 60.7 448 96 L 448 416 C 448 451.3 419.3 480 384 480 L 64 480 C 28.7 480 0 451.3 0 416 Z M 89.186 123.297 C 89.186 111.064 79.303 101.18 67.069 101.18 C 54.836 101.18 44.952 111.064 44.952 123.297 L 44.952 355.526 C 44.952 386.075 69.695 410.819 100.245 410.819 L 376.708 410.819 C 388.941 410.819 398.825 400.935 398.825 388.702 C 398.825 376.468 388.941 366.585 376.708 366.585 L 100.245 366.585 C 94.162 366.585 89.186 361.608 89.186 355.526 Z M 275.482 343.836 C 282.643 339.181 288.686 333.005 293.61 325.306 C 298.533 317.607 302.517 308.879 305.56 299.122 C 308.604 289.364 310.887 279.427 312.409 269.312 C 313.93 259.197 314.96 249.35 315.497 239.771 C 316.034 230.192 316.303 221.643 316.303 214.124 C 316.303 210.901 316.169 206.47 315.9 200.831 C 315.631 195.191 315.139 189.014 314.423 182.3 C 313.706 175.587 312.677 168.828 311.334 162.024 C 309.991 155.221 308.201 148.999 305.963 143.36 C 303.725 137.72 300.995 133.155 297.772 129.664 C 294.549 126.173 290.7 124.427 286.224 124.427 C 282.643 124.427 279.734 125.412 277.496 127.381 C 275.258 129.35 273.468 131.902 272.125 135.035 C 270.782 138.168 269.798 141.659 269.171 145.508 C 268.544 149.357 268.186 153.251 268.097 157.19 C 268.008 161.129 267.963 164.889 267.963 168.47 C 267.963 172.051 267.963 175.094 267.963 177.601 C 267.963 181.182 267.784 184.986 267.426 189.014 C 267.068 193.043 266.217 196.803 264.874 200.294 C 263.531 203.785 261.473 206.694 258.698 209.022 C 255.923 211.349 252.208 212.513 247.553 212.513 C 243.435 212.513 240.257 211.797 238.019 210.364 C 235.781 208.932 234.125 207.007 233.051 204.59 C 231.976 202.173 231.35 199.443 231.171 196.399 C 230.992 193.356 230.902 190.312 230.902 187.269 C 230.902 185.12 230.947 182.032 231.036 178.003 C 231.126 173.975 231.081 169.544 230.902 164.71 C 230.723 159.876 230.321 154.997 229.694 150.074 C 229.067 145.151 228.083 140.63 226.74 136.512 C 225.397 132.394 223.651 128.947 221.503 126.172 C 219.354 123.397 216.579 121.92 213.178 121.741 C 207.985 121.383 203.778 123.308 200.556 127.515 C 197.333 131.722 194.827 136.87 193.036 142.957 C 191.245 149.044 189.947 155.266 189.142 161.622 C 188.336 167.977 187.844 173.125 187.665 177.064 C 187.307 182.256 187.307 187.94 187.665 194.117 C 188.023 200.294 188.784 206.605 189.948 213.05 C 191.111 219.495 192.857 225.717 195.184 231.714 C 197.512 237.712 200.466 243.038 204.047 247.693 C 207.628 252.348 211.969 256.108 217.072 258.973 C 222.174 261.838 228.127 263.27 234.931 263.27 C 243.882 263.27 251.446 260.719 257.623 255.616 C 263.8 250.513 270.022 243.218 276.288 233.729 C 276.109 236.952 275.84 241.159 275.482 246.351 C 275.124 251.543 274.542 257.093 273.737 263.001 C 272.931 268.909 271.812 274.862 270.38 280.86 C 268.947 286.858 267.067 292.319 264.74 297.242 C 262.413 302.165 259.593 306.149 256.281 309.192 C 252.968 312.236 249.074 313.758 244.598 313.758 C 242.092 313.758 239.72 313.4 237.482 312.684 C 235.244 311.967 232.961 311.162 230.634 310.267 C 228.485 309.372 226.382 308.611 224.323 307.984 C 222.264 307.357 220.16 307.044 218.012 307.044 C 216.042 307.044 214.162 307.447 212.372 308.253 C 210.581 309.058 208.925 310.132 207.404 311.475 C 205.882 312.818 204.673 314.384 203.778 316.175 C 202.883 317.965 202.435 319.755 202.435 321.546 C 202.435 326.201 204.091 330.318 207.404 333.899 C 210.716 337.48 214.789 340.524 219.623 343.03 C 224.457 345.537 229.604 347.461 235.065 348.804 C 240.526 350.147 245.404 350.818 249.701 350.818 C 259.727 350.818 268.321 348.491 275.482 343.836 Z M 111.805 301.095 L 113.965 305.157 C 117.906 312.569 127.109 315.383 134.521 311.442 L 176.756 288.985 C 184.168 285.044 186.982 275.84 183.041 268.428 L 180.881 264.367 C 176.94 256.955 167.737 254.141 160.325 258.082 L 118.09 280.539 C 110.678 284.48 107.864 293.683 111.805 301.095 Z M 331.192 182.324 L 333.351 186.385 C 337.292 193.797 346.496 196.611 353.908 192.67 L 396.979 169.769 C 404.391 165.828 407.205 156.624 403.264 149.212 L 401.104 145.15 C 397.163 137.738 387.96 134.925 380.548 138.866 L 337.477 161.767 C 330.065 165.708 327.251 174.912 331.192 182.324 Z"/>
</svg>