<?xml version="1.0" encoding="utf-8"?>
<svg viewBox="0 0 448 512" xmlns="http://www.w3.org/2000/svg">
  <path d="M 0 96 C 0 60.7 28.7 32 64 32 L 384 32 C 419.3 32 448 60.7 448 96 L 448 416 C 448 451.3 419.3 480 384 480 L 64 480 C 28.7 480 0 451.3 0 416 Z M 89.186 123.297 C 89.186 111.064 79.303 101.18 67.069 101.18 C 54.836 101.18 44.952 111.064 44.952 123.297 L 44.952 355.526 C 44.952 386.075 69.695 410.819 100.245 410.819 L 376.708 410.819 C 388.941 410.819 398.825 400.935 398.825 388.702 C 398.825 376.468 388.941 366.585 376.708 366.585 L 100.245 366.585 C 94.162 366.585 89.186 361.608 89.186 355.526 Z M 370.211 183.151 C 378.851 174.512 378.851 160.481 370.211 151.842 C 361.572 143.202 347.541 143.202 338.902 151.842 L 266.123 224.69 L 226.45 185.018 C 217.811 176.378 203.78 176.378 195.141 185.018 L 117.731 262.427 C 109.091 271.067 109.091 285.097 117.731 293.737 C 126.37 302.376 140.401 302.376 149.04 293.737 L 210.83 232.016 L 250.502 271.689 C 259.142 280.328 273.172 280.328 281.812 271.689 L 370.28 183.22 Z"/>
</svg>