<?xml version="1.0" encoding="utf-8"?>
<svg viewBox="0 0 448 512" xmlns="http://www.w3.org/2000/svg">
  <path d="M 0 96 C 0 60.7 28.7 32 64 32 L 384 32 C 419.3 32 448 60.7 448 96 L 448 416 C 448 451.3 419.3 480 384 480 L 64 480 C 28.7 480 0 451.3 0 416 Z M 224 113.5 C 208.266 113.5 195.499 126.265 195.499 141.999 C 195.499 157.735 208.266 170.5 224 170.5 C 239.734 170.5 252.501 157.735 252.501 141.999 C 252.501 126.265 239.734 113.5 224 113.5 Z M 185.999 246.499 L 205.001 246.499 L 205.001 360.499 L 185.999 360.499 C 175.49 360.499 167 368.991 167 379.499 C 167 390.01 175.49 398.5 185.999 398.5 L 262 398.5 C 272.508 398.5 281 390.01 281 379.499 C 281 368.991 272.508 360.499 262 360.499 L 242.999 360.499 L 242.999 227.5 C 242.999 216.991 234.509 208.5 224 208.5 L 185.999 208.5 C 175.49 208.5 167 216.991 167 227.5 C 167 238.01 175.49 246.499 185.999 246.499 Z"/>
</svg>