<?xml version="1.0" encoding="utf-8"?>
<svg viewBox="0 0 448 512" xmlns="http://www.w3.org/2000/svg">
  <path d="M 0 96 C 0 60.7 28.7 32 64 32 L 384 32 C 419.3 32 448 60.7 448 96 L 448 416 C 448 451.3 419.3 480 384 480 L 64 480 C 28.7 480 0 451.3 0 416 Z M 162.555 101.717 L 157.86 111.041 L 95.266 111.041 C 83.725 111.041 74.401 120.365 74.401 131.905 C 74.401 143.446 83.725 152.77 95.266 152.77 L 345.641 152.77 C 357.182 152.77 366.506 143.446 366.506 131.905 C 366.506 120.365 357.182 111.041 345.641 111.041 L 283.048 111.041 L 278.353 101.717 C 274.832 94.61 267.594 90.176 259.705 90.176 L 181.202 90.176 C 173.312 90.176 166.075 94.61 162.555 101.717 Z M 345.641 173.635 L 95.266 173.635 L 109.089 394.669 C 110.132 411.165 123.824 424.01 140.321 424.01 L 300.587 424.01 C 317.083 424.01 330.775 411.165 331.819 394.669 Z"/>
</svg>