<?xml version="1.0" encoding="utf-8"?>
<svg viewBox="0 0 683.459 512" xmlns="http://www.w3.org/2000/svg">
  <path d="M 144 160 C 99.8 160 64 124.2 64 80 C 64 35.8 99.8 0 144 0 C 188.2 0 224 35.8 224 80 C 224 124.2 188.2 160 144 160 Z M 512 160 C 467.8 160 432 124.2 432 80 C 432 35.8 467.8 0 512 0 C 556.2 0 592 35.8 592 80 C 592 124.2 556.2 160 512 160 Z M 0 298.7 C 0 239.8 47.8 192 106.7 192 L 149.4 192 C 165.3 192 180.4 195.5 194 201.7 C 192.7 208.9 192.1 216.4 192.1 224 C 192.1 262.2 208.9 296.5 235.4 320 C 235.2 320 235 320 234.7 320 L 21.3 320 C 9.6 320 0 310.4 0 298.7 Z M 404.6 320 C 431.2 296.5 447.9 262.2 447.9 224 C 447.9 216.4 447.2 209 446 201.7 C 459.6 195.4 474.7 192 490.6 192 L 533.3 192 C 543.012 192 552.422 193.299 561.365 195.734 L 437.153 320 C 417.638 320 404.674 320 404.6 320 Z M 416 224 C 416 277 373 320 320 320 C 267 320 224 277 224 224 C 224 171 267 128 320 128 C 373 128 416 171 416 224 Z M 128 485.3 C 128 411.7 187.7 352 261.3 352 L 378.7 352 C 387.476 352 396.054 352.849 404.357 354.469 C 400.495 360.157 397.522 366.435 395.548 373.066 L 368.877 463.695 C 366.996 470.1 368.728 476.954 373.398 481.625 C 378.067 486.295 384.925 488.028 391.256 486.221 L 481.884 459.549 C 490.833 456.885 499.141 452.4 506.222 446.369 C 509.979 458.686 512 471.757 512 485.3 C 512 500 500.1 512 485.3 512 L 154.7 512 C 140 512 128 500.1 128 485.3 Z"/>
  <path d="M 604.219 192.001 L 579.28 216.94 L 646.264 283.924 L 671.205 258.987 C 684.084 246.104 684.084 225.237 671.205 212.356 L 650.902 192.001 C 638.02 179.118 617.152 179.118 604.27 192.001 L 604.219 192.001 Z M 567.635 228.586 L 447.528 348.746 C 442.167 354.105 438.25 360.752 436.088 368.017 L 417.846 430.003 C 416.559 434.384 417.744 439.072 420.938 442.266 C 424.132 445.461 428.822 446.646 433.152 445.41 L 495.137 427.168 C 502.402 425.005 509.049 421.088 514.408 415.731 L 634.62 295.571 L 567.635 228.586 Z" style=""/>
</svg>